<svg width="131" height="47" viewBox="0 0 131 47" fill="none" xmlns="http://www.w3.org/2000/svg">
<path d="M0.552002 36V1.91999H12.936C16.648 1.91999 19.752 2.68799 22.248 4.22399C24.744 5.72799 26.616 7.77599 27.864 10.368C29.112 12.928 29.736 15.776 29.736 18.912C29.736 22.368 29.048 25.376 27.672 27.936C26.296 30.496 24.344 32.48 21.816 33.888C19.32 35.296 16.36 36 12.936 36H0.552002ZM23.064 18.912C23.064 16.704 22.664 14.768 21.864 13.104C21.064 11.408 19.912 10.096 18.408 9.16799C16.904 8.20799 15.08 7.72799 12.936 7.72799H7.176V30.192H12.936C15.112 30.192 16.952 29.712 18.456 28.752C19.96 27.76 21.096 26.416 21.864 24.72C22.664 22.992 23.064 21.056 23.064 18.912Z" fill="#1F1F1F"/>
<path d="M34.1936 36V10.848H40.6256V36H34.1936ZM34.1936 7.34399V0.959991H40.6256V7.34399H34.1936Z" fill="#1F1F1F"/>
<path d="M58.092 36.48C56.076 36.48 54.252 36.144 52.62 35.472C50.988 34.768 49.596 33.824 48.444 32.64C47.292 31.424 46.396 30.048 45.756 28.512C45.148 26.944 44.844 25.296 44.844 23.568C44.844 21.168 45.372 18.976 46.428 16.992C47.516 15.008 49.052 13.424 51.036 12.24C53.052 11.024 55.42 10.416 58.14 10.416C60.892 10.416 63.244 11.024 65.196 12.24C67.148 13.424 68.636 15.008 69.66 16.992C70.716 18.944 71.244 21.056 71.244 23.328C71.244 23.712 71.228 24.112 71.196 24.528C71.164 24.912 71.132 25.232 71.1 25.488H51.66C51.788 26.768 52.156 27.888 52.764 28.848C53.404 29.808 54.204 30.544 55.164 31.056C56.156 31.536 57.212 31.776 58.332 31.776C59.612 31.776 60.812 31.472 61.932 30.864C63.084 30.224 63.868 29.392 64.284 28.368L69.804 29.904C69.196 31.184 68.316 32.32 67.164 33.312C66.044 34.304 64.716 35.088 63.18 35.664C61.644 36.208 59.948 36.48 58.092 36.48ZM51.516 21.408H64.668C64.54 20.128 64.172 19.024 63.564 18.096C62.988 17.136 62.22 16.4 61.26 15.888C60.3 15.344 59.228 15.072 58.044 15.072C56.892 15.072 55.836 15.344 54.876 15.888C53.948 16.4 53.18 17.136 52.572 18.096C51.996 19.024 51.644 20.128 51.516 21.408Z" fill="#1F1F1F"/>
<path d="M85.0024 36.144C83.3384 36.144 81.8024 35.824 80.3944 35.184C79.0184 34.512 77.8184 33.584 76.7944 32.4C75.8024 31.216 75.0344 29.856 74.4904 28.32C73.9464 26.784 73.6744 25.152 73.6744 23.424C73.6744 21.6 73.9624 19.904 74.5384 18.336C75.1144 16.768 75.9144 15.392 76.9384 14.208C77.9944 12.992 79.2264 12.064 80.6344 11.424C82.0744 10.752 83.6584 10.416 85.3864 10.416C87.3384 10.416 89.0504 10.864 90.5224 11.76C91.9944 12.624 93.2104 13.792 94.1704 15.264V10.848H99.7864V34.8C99.7864 37.296 99.1784 39.424 97.9624 41.184C96.7784 42.976 95.1304 44.336 93.0184 45.264C90.9064 46.224 88.5064 46.704 85.8184 46.704C83.0984 46.704 80.7944 46.24 78.9064 45.312C77.0184 44.416 75.4024 43.136 74.0584 41.472L77.5624 38.064C78.5224 39.248 79.7224 40.176 81.1624 40.848C82.6344 41.52 84.1864 41.856 85.8184 41.856C87.1944 41.856 88.4424 41.6 89.5624 41.088C90.7144 40.608 91.6264 39.84 92.2984 38.784C93.0024 37.76 93.3544 36.432 93.3544 34.8V31.632C92.5224 33.072 91.3384 34.192 89.8024 34.992C88.2984 35.76 86.6984 36.144 85.0024 36.144ZM87.1624 31.008C87.8664 31.008 88.5384 30.896 89.1784 30.672C89.8184 30.448 90.4104 30.144 90.9544 29.76C91.4984 29.376 91.9784 28.928 92.3944 28.416C92.8104 27.872 93.1304 27.328 93.3544 26.784V20.784C92.9704 19.792 92.4264 18.928 91.7224 18.192C91.0504 17.456 90.2824 16.896 89.4184 16.512C88.5864 16.096 87.7064 15.888 86.7784 15.888C85.7864 15.888 84.8904 16.096 84.0904 16.512C83.2904 16.928 82.6024 17.52 82.0264 18.288C81.4504 19.024 81.0024 19.856 80.6824 20.784C80.3944 21.68 80.2504 22.624 80.2504 23.616C80.2504 24.64 80.4264 25.6 80.7784 26.496C81.1304 27.392 81.6104 28.176 82.2184 28.848C82.8584 29.52 83.5944 30.048 84.4264 30.432C85.2904 30.816 86.2024 31.008 87.1624 31.008Z" fill="#1F1F1F"/>
<path d="M117.2 36.48C115.152 36.48 113.312 36.144 111.68 35.472C110.048 34.768 108.656 33.808 107.504 32.592C106.384 31.376 105.52 29.984 104.912 28.416C104.304 26.848 104 25.2 104 23.472C104 21.712 104.304 20.048 104.912 18.48C105.52 16.912 106.384 15.52 107.504 14.304C108.656 13.088 110.048 12.144 111.68 11.472C113.312 10.768 115.152 10.416 117.2 10.416C119.248 10.416 121.072 10.768 122.672 11.472C124.304 12.144 125.696 13.088 126.848 14.304C128 15.52 128.864 16.912 129.44 18.48C130.048 20.048 130.352 21.712 130.352 23.472C130.352 25.2 130.048 26.848 129.44 28.416C128.864 29.984 128 31.376 126.848 32.592C125.728 33.808 124.352 34.768 122.72 35.472C121.088 36.144 119.248 36.48 117.2 36.48ZM110.624 23.472C110.624 24.944 110.912 26.256 111.488 27.408C112.064 28.528 112.848 29.408 113.84 30.048C114.832 30.688 115.952 31.008 117.2 31.008C118.416 31.008 119.52 30.688 120.512 30.048C121.504 29.376 122.288 28.48 122.864 27.36C123.472 26.208 123.776 24.896 123.776 23.424C123.776 21.984 123.472 20.688 122.864 19.536C122.288 18.384 121.504 17.488 120.512 16.848C119.52 16.208 118.416 15.888 117.2 15.888C115.952 15.888 114.832 16.224 113.84 16.896C112.848 17.536 112.064 18.432 111.488 19.584C110.912 20.704 110.624 22 110.624 23.472Z" fill="#1F1F1F"/>
</svg>
