<svg width="26" height="25" viewBox="0 0 26 25" fill="none" xmlns="http://www.w3.org/2000/svg">
<path d="M13.6225 12.2011V1.23066C13.6225 0.879044 13.7629 0.591889 14.0437 0.369198C14.3244 0.146507 14.6479 0.0351615 15.0141 0.0351615H24.6085C24.9991 0.0351615 25.3286 0.146507 25.5972 0.369198C25.8657 0.591889 26 0.879044 26 1.23066V7.38397C26 7.75902 25.8718 8.08134 25.6155 8.35092C25.3592 8.62049 25.0235 8.75527 24.6085 8.75527H17.3211L13.6225 12.2011ZM24.3887 25C21.4592 25 18.5418 24.3026 15.6366 22.9079C12.7315 21.5131 10.1192 19.7023 7.8 17.4754C5.48075 15.2485 3.60094 12.7403 2.16056 9.95077C0.720188 7.16128 0 4.36006 0 1.54712C0 1.10173 0.146479 0.732536 0.439437 0.439522C0.732394 0.146507 1.123 0 1.61127 0H6.48169C6.8723 0 7.20798 0.123066 7.48873 0.369198C7.76948 0.615331 7.95869 0.925926 8.05634 1.30098L9.00845 5.59072C9.05728 5.94233 9.03897 6.25879 8.95352 6.54008C8.86808 6.82138 8.73991 7.03235 8.56901 7.173L4.94366 10.5837C6.28639 12.7403 7.81831 14.6331 9.53944 16.2623C11.2606 17.8915 13.1587 19.2686 15.2338 20.3938L18.8225 16.8776C19.0423 16.6432 19.2803 16.4791 19.5366 16.3854C19.793 16.2916 20.0676 16.2799 20.3606 16.3502L24.6451 17.2996C25.0357 17.3699 25.3592 17.5516 25.6155 17.8446C25.8718 18.1376 26 18.4716 26 18.8467V23.4177C26 23.8865 25.8535 24.2675 25.5606 24.5605C25.2676 24.8535 24.877 25 24.3887 25Z" fill="url(#paint0_linear_6_224)"/>
<defs>
<linearGradient id="paint0_linear_6_224" x1="13" y1="0" x2="13" y2="25" gradientUnits="userSpaceOnUse">
<stop stop-color="#5C2FA5"/>
<stop offset="1" stop-color="#A10DFC"/>
</linearGradient>
</defs>
</svg>
