<svg width="26" height="25" viewBox="0 0 26 25" fill="none" xmlns="http://www.w3.org/2000/svg">
<path d="M20.5833 0H5.41667C2.42558 0 0 2.33229 0 5.20833V19.7917C0 22.6677 2.42558 25 5.41667 25H20.5833C23.5755 25 26 22.6677 26 19.7917V5.20833C26 2.33229 23.5755 0 20.5833 0ZM8.66667 19.7917H5.41667V8.33333H8.66667V19.7917ZM7.04167 7.0125C5.99517 7.0125 5.14583 6.18958 5.14583 5.175C5.14583 4.16042 5.99517 3.3375 7.04167 3.3375C8.08817 3.3375 8.9375 4.16042 8.9375 5.175C8.9375 6.18958 8.08925 7.0125 7.04167 7.0125ZM21.6667 19.7917H18.4167V13.9542C18.4167 10.4458 14.0833 10.7115 14.0833 13.9542V19.7917H10.8333V8.33333H14.0833V10.1719C15.5957 7.47813 21.6667 7.27917 21.6667 12.751V19.7917Z" fill="url(#paint0_linear_6_226)"/>
<defs>
<linearGradient id="paint0_linear_6_226" x1="13" y1="0" x2="13" y2="25" gradientUnits="userSpaceOnUse">
<stop stop-color="#5C2FA5"/>
<stop offset="1" stop-color="#A10DFC"/>
</linearGradient>
</defs>
</svg>
